<?xml version="1.0" encoding="UTF-8"?>
<svg xmlns="http://www.w3.org/2000/svg" xmlns:xlink="http://www.w3.org/1999/xlink" width="100px" height="100px" viewBox="0 0 100 100" version="1.1">
<g id="surface1">
<path style=" stroke:none;fill-rule:nonzero;fill:rgb(0%,0%,0%);fill-opacity:1;" d="M 28.351562 81.957031 C 25.222656 81.957031 22.679688 84.503906 22.679688 87.628906 C 22.679688 90.753906 25.222656 93.300781 28.351562 93.300781 C 31.476562 93.300781 34.019531 90.753906 34.019531 87.628906 C 34.019531 84.503906 31.476562 81.957031 28.351562 81.957031 Z M 28.351562 90.207031 C 26.929688 90.207031 25.773438 89.050781 25.773438 87.628906 C 25.773438 86.207031 26.929688 85.050781 28.351562 85.050781 C 29.773438 85.050781 30.929688 86.207031 30.929688 87.628906 C 30.929688 89.050781 29.773438 90.207031 28.351562 90.207031 Z M 28.351562 90.207031 "/>
<path style=" stroke:none;fill-rule:nonzero;fill:rgb(0%,0%,0%);fill-opacity:1;" d="M 70.617188 81.957031 C 67.492188 81.957031 64.949219 84.503906 64.949219 87.628906 C 64.949219 90.753906 67.492188 93.300781 70.617188 93.300781 C 73.746094 93.300781 76.289062 90.753906 76.289062 87.628906 C 76.289062 84.503906 73.746094 81.957031 70.617188 81.957031 Z M 70.617188 90.207031 C 69.195312 90.207031 68.042969 89.050781 68.042969 87.628906 C 68.042969 86.207031 69.195312 85.050781 70.617188 85.050781 C 72.039062 85.050781 73.195312 86.207031 73.195312 87.628906 C 73.195312 89.050781 72.039062 90.207031 70.617188 90.207031 Z M 70.617188 90.207031 "/>
<path style=" stroke:none;fill-rule:nonzero;fill:rgb(0%,0%,0%);fill-opacity:1;" d="M 10.824219 71.648438 L 14.949219 71.648438 L 14.949219 74.742188 L 10.824219 74.742188 Z M 10.824219 71.648438 "/>
<path style=" stroke:none;fill-rule:nonzero;fill:rgb(0%,0%,0%);fill-opacity:1;" d="M 35.566406 71.648438 L 39.691406 71.648438 L 39.691406 74.742188 L 35.566406 74.742188 Z M 35.566406 71.648438 "/>
<path style=" stroke:none;fill-rule:nonzero;fill:rgb(0%,0%,0%);fill-opacity:1;" d="M 60.308594 71.648438 L 64.433594 71.648438 L 64.433594 74.742188 L 60.308594 74.742188 Z M 60.308594 71.648438 "/>
<path style=" stroke:none;fill-rule:nonzero;fill:rgb(0%,0%,0%);fill-opacity:1;" d="M 85.050781 71.648438 L 89.175781 71.648438 L 89.175781 74.742188 L 85.050781 74.742188 Z M 85.050781 71.648438 "/>
<path style=" stroke:none;fill-rule:nonzero;fill:rgb(0%,0%,0%);fill-opacity:1;" d="M 42.785156 71.648438 L 57.214844 71.648438 L 57.214844 74.742188 L 42.785156 74.742188 Z M 42.785156 71.648438 "/>
<path style=" stroke:none;fill-rule:nonzero;fill:rgb(0%,0%,0%);fill-opacity:1;" d="M 30.414062 0.515625 L 30.414062 3.609375 L 96.90625 3.609375 L 96.90625 13.917969 L 3.09375 13.917969 L 3.09375 9.792969 L 73.710938 9.792969 L 73.710938 6.699219 L 3.09375 6.699219 L 3.09375 3.609375 L 26.289062 3.609375 L 26.289062 0.515625 L 0 0.515625 L 0 17.011719 L 5.15625 17.011719 L 5.15625 93.300781 L 17.929688 93.300781 C 20.011719 97.085938 24 99.484375 28.351562 99.484375 C 32.703125 99.484375 36.6875 97.085938 38.769531 93.300781 L 60.199219 93.300781 C 62.28125 97.085938 66.265625 99.484375 70.617188 99.484375 C 75 99.484375 78.96875 97.09375 81.039062 93.300781 L 94.84375 93.300781 L 94.84375 83.503906 L 91.753906 83.503906 L 91.753906 90.207031 L 82.191406 90.207031 C 82.378906 89.363281 82.472656 88.503906 82.472656 87.628906 C 82.472656 81.089844 77.15625 75.773438 70.617188 75.773438 C 64.082031 75.773438 58.761719 81.089844 58.761719 87.628906 C 58.761719 88.5 58.859375 89.363281 59.046875 90.207031 L 39.925781 90.207031 C 40.109375 89.363281 40.207031 88.5 40.207031 87.628906 C 40.207031 81.089844 34.886719 75.773438 28.351562 75.773438 C 21.8125 75.773438 16.496094 81.089844 16.496094 87.628906 C 16.496094 88.5 16.589844 89.363281 16.777344 90.207031 L 8.246094 90.207031 L 8.246094 68.554688 L 91.753906 68.554688 L 91.753906 79.382812 L 94.84375 79.382812 L 94.84375 17.011719 L 100 17.011719 L 100 0.515625 Z M 70.617188 78.867188 C 75.449219 78.867188 79.382812 82.796875 79.382812 87.628906 C 79.382812 88.8125 79.152344 89.964844 78.699219 91.046875 C 77.320312 94.292969 74.148438 96.390625 70.617188 96.390625 C 67.148438 96.390625 63.992188 94.328125 62.574219 91.136719 C 62.097656 90.015625 61.855469 88.835938 61.855469 87.628906 C 61.855469 82.796875 65.785156 78.867188 70.617188 78.867188 Z M 28.351562 78.867188 C 33.183594 78.867188 37.113281 82.796875 37.113281 87.628906 C 37.113281 88.835938 36.871094 90.015625 36.394531 91.136719 C 34.976562 94.328125 31.820312 96.390625 28.351562 96.390625 C 24.882812 96.390625 21.726562 94.328125 20.304688 91.136719 C 19.828125 90.015625 19.585938 88.835938 19.585938 87.628906 C 19.585938 82.796875 23.519531 78.867188 28.351562 78.867188 Z M 75.257812 17.011719 L 83.503906 17.011719 L 83.503906 57.214844 L 75.257812 57.214844 Z M 67.011719 17.011719 L 72.164062 17.011719 L 72.164062 57.214844 L 67.011719 57.214844 Z M 55.671875 17.011719 L 63.917969 17.011719 L 63.917969 57.214844 L 55.671875 57.214844 Z M 47.421875 17.011719 L 52.578125 17.011719 L 52.578125 57.214844 L 47.421875 57.214844 Z M 36.082031 17.011719 L 44.328125 17.011719 L 44.328125 57.214844 L 36.082031 57.214844 Z M 27.835938 17.011719 L 32.988281 17.011719 L 32.988281 57.214844 L 27.835938 57.214844 Z M 16.496094 17.011719 L 24.742188 17.011719 L 24.742188 57.214844 L 16.496094 57.214844 Z M 8.246094 17.011719 L 13.402344 17.011719 L 13.402344 57.214844 L 8.246094 57.214844 Z M 91.753906 65.464844 L 8.246094 65.464844 L 8.246094 60.308594 L 91.753906 60.308594 Z M 91.753906 57.214844 L 86.597656 57.214844 L 86.597656 17.011719 L 91.753906 17.011719 Z M 91.753906 57.214844 "/>
<path style=" stroke:none;fill-rule:nonzero;fill:rgb(0%,0%,0%);fill-opacity:1;" d="M 77.835938 6.699219 L 88.144531 6.699219 L 88.144531 9.792969 L 77.835938 9.792969 Z M 77.835938 6.699219 "/>
</g>
</svg>
